<svg xmlns="http://www.w3.org/2000/svg" style="isolation:isolate" viewBox="0 0 1600 999"><defs><clipPath id="a"><path d="M0 0h1600v999H0z"/></clipPath></defs><g clip-path="url(#a)"><g fill="#2B2A29"><path d="M90 998l20-19c35-31 54-56 62-80 4-12 5-21 5-33-1-23-10-40-38-75l-14-18-7-8a708 708 0 00-15-22c-12-18-19-35-23-52-2-10-1-34 1-45 7-31 24-59 52-90 9-10 9-10 14-10l43-1 38 1-5 2a454 454 0 00-49 47c-16 18-25 33-30 48-2 6-2 8-2 20 0 11 0 14 2 23 6 19 16 36 39 64l11 13 7 9 6 8 15 24c5 10 11 24 13 35 3 14 3 42 0 57-7 34-24 63-52 93l-10 10h-42l-41-1zM353 819l-1-197v-17h-98v-60h261v59H414v395h-61V819zM1029 771V547h59c61 1 74 2 89 6 41 10 66 40 75 90 2 9 2 48 0 58-8 48-32 76-73 87l-10 2-7 1 15 24a5255 5255 0 0175 112l46 69h-69l-15-24-22-33-13-20-70-106-12-19h-11v202h-57V771zm96-31c36-3 51-10 60-27 5-10 7-30 6-46-2-17-5-27-12-37-11-16-34-23-72-23h-17v134h12l23-1zM1362 772V547h219v59h-158v118h158v60h-158v151h158v61h-219V772zM1593 452l-15-19a115 115 0 01-9-11 9820 9820 0 01-162-207l-3-4-4-5-3-4-4-5-8-10-8-10v280h-59V229 0l11 14a22288 22288 0 0032 41l19 24 18 24 21 27 20 26 9 11 10 13 16 22a1911 1911 0 0119 23l4 6 4 5 16 21 19 24 4 6c1 2 2-26 2-141V4l29-1h29v458l-7-9zM177 438a7464 7464 0 00-22-53l-19-46-5-13A22401 22401 0 0036 94l-5-13-16-40L0 4l32-1h33l2 6 14 33 43 108 11 24 15 38 15 36 8 21c12 30 13 31 13 29l11-28 11-32 13-35 12-35 5-13 4-12 5-14a1966 1966 0 0122-62l5-12 4-13 5-12 4-14 4-9 1-4h34l34 1-8 22a6845 6845 0 01-20 53l-10 25-33 87-18 49-16 42-34 89-17 42a3951 3951 0 00-18 47l-9-22zM381 230V3h60v454h-60V230zM505 456c-2-1-2 0 24-24 43-40 61-70 61-104 0-16-3-27-12-43-6-11-13-21-35-48-34-43-44-62-49-90-4-19-1-43 7-65 9-24 25-47 50-73l6-6h42c40 1 41 1 38 2a388 388 0 00-67 71c-16 25-19 41-12 67 3 15 13 32 25 48a1804 1804 0 0040 50c20 29 28 53 28 84 0 44-18 83-55 122l-10 10h-40l-41-1zM702 230V3h60v454h-60V230z"/></g><g fill="#E5097F"><path d="M93 998h6c1 1 0 1-3 1-4 0-5 0-3-1zM368 998zM728 996a229 229 0 01-161-85l-21-34a232 232 0 01-3-208c21-42 57-77 105-101 29-15 51-20 88-20a439 439 0 0150 3h10l-1-16c0-16 1-34 3-44a147 147 0 0177-95l6-3c0-2-9-13-15-19a239 239 0 01-45-89l-4-27A228 228 0 011056 7c26 2 43 6 66 15 52 19 92 55 118 106a224 224 0 01-293 308c-14-6-18-7-26-4-29 8-60 42-69 75-4 14-5 27-4 39 3 13 6 22 9 27l17 14c21 17 32 28 44 41a212 212 0 0150 107 222 222 0 01-44 174 224 224 0 01-196 87zm47-59c40-7 77-30 102-61 18-22 28-45 34-75a163 163 0 00-16-104 163 163 0 00-149-94c-48 0-94 20-128 56-29 30-44 69-44 111a169 169 0 00201 167zm287-538a168 168 0 00139-218c-7-20-21-46-33-60-26-28-53-44-88-53a172 172 0 00-206 126c-5 24-5 56 1 79 5 18 14 38 22 50l5 8a183 183 0 0053 47 169 169 0 00107 21z"/><path d="M597 760a154 154 0 01112-135c11-2 29-4 34-3h4v38l-8 1a185 185 0 00-53 17c-33 16-53 34-75 70l-9 14-5 7v-9zM893 222l1-12c6-49 42-96 88-116 16-7 29-10 51-11l9-1v39h-4c-8 0-25 4-39 9-22 7-43 20-61 39-10 10-19 21-31 40l-12 15-2 2v-4zM1423 860v-38a4813 4813 0 010 38zM1088 793h6c1 1 0 1-3 1s-4 0-3-1zM1423 665v-30a2950 2950 0 010 30zM352 617v-12h-98l49-1h50v24l-1-11zM1093 606h8c2 1 0 1-4 1s-6 0-4-1zM514 575a701 701 0 010 0zM1053 547zM1416 547zM152 545h10c2 1 0 1-5 1-6 0-8 0-5-1zM516 456h4c1 1 0 1-2 1s-3 0-2-1zM527 456h8c2 1 0 1-4 1-5 0-7 0-4-1zM563 456h7c2 1 0 1-3 1-4 0-6 0-4-1zM1332 456zM1542 146V75a16922 16922 0 010 71z"/></g></g></svg>